<?xml version="1.0" encoding="utf-8"?>
<!-- Generator: Adobe Illustrator 23.0.3, SVG Export Plug-In . SVG Version: 6.00 Build 0)  -->
<svg version="1.1"
	 id="svg2" xmlns:cc="http://creativecommons.org/ns#" xmlns:dc="http://purl.org/dc/elements/1.1/" xmlns:rdf="http://www.w3.org/1999/02/22-rdf-syntax-ns#" xmlns:svg="http://www.w3.org/2000/svg"
	 xmlns="http://www.w3.org/2000/svg" xmlns:xlink="http://www.w3.org/1999/xlink" x="0px" y="0px" viewBox="0 0 898.7 168"
	 style="enable-background:new 0 0 898.7 168;" xml:space="preserve">
<style type="text/css">
	.st0{fill-rule:evenodd;clip-rule:evenodd;}
</style>
<g id="g10" transform="matrix(1.3333333,0,0,-1.3333333,0,168)">
	<g id="g12" transform="scale(0.1)">
		<path id="path14" class="st0" d="M3856.8,912.3v-95h533.4v95H3856.8z M4539.4,681.5h-644.6c-35.9,0.4-68.2,8.6-97.1,24.7
			s-51.8,37.7-68.9,64.9c-17,27.2-25.8,57.7-26.2,91.4c0.4,32.9,8.8,62.8,25.1,89.7c16.4,26.9,38.4,48.3,66.1,64.3
			c27.7,16,58.6,24.2,92.9,24.6h503.3v85.6h-657.3v127.2h635c32.1-0.4,61-8.9,86.8-25.6c25.8-16.7,46.2-39.1,61.4-67.3
			c15.2-28.2,22.9-59.6,23.3-94.4L4539.4,681.5z M2094.1,962.6c37.9,79.6,134.6,79.3,134.6,79.3h398.6v211.9h148.4V681.5h-148.4V911
			h-398.6l-134.6,0.1v-228h-146.9v570h146.9V962.6z M3645.2,681.6h-620c-47.9-0.3-89.4,16.9-124.6,51.6
			c-16.9,16.4-30.5,34.8-40.7,55c-10.2,20.2-15.4,38.9-15.7,56.2v229.4c-0.3,13.8,1.1,26.7,4,38.9c3.4,17.5,10.3,34.9,20.7,52.4
			c10.4,17.5,23.1,32.6,38,45.2c17.3,15,38.5,26.1,63.7,33.1c25.2,7.1,55.6,10.6,91.1,10.5h395.3c19.2,0,36.2-1.8,50.9-5.5
			c14.7-3.7,28.7-9.3,42-16.8c15.9-9.5,30.8-21.5,44.8-36.1c14-14.6,24.7-29.8,32.3-45.7c12-23.7,18.1-53.3,18.3-88.9V911.6h-652.5
			v-94.2h652.5L3645.2,681.6z M2992.7,1126.7V1042h504.1v84.8H2992.7z M5432.5,1039.6v-177c0.1-22.6-3.5-43.2-11-61.7
			c-7.5-18.5-19.7-37.1-36.6-55.8c-20.5-23.8-43.6-40.5-69.6-49.9c-25.9-9.4-60.4-14-103.5-13.6h-389.8c-29.5-0.1-54.7,2.5-75.6,7.6
			c-20.9,5.2-39.4,13.5-55.4,24.9c-10.2,7-20.5,16.2-31,27.5c-10.5,11.3-19.5,23-26.9,35.2c-17.5,25.4-26.2,55.6-26.2,90.5v229.4
			c0.3,14.4,4.7,30,13.3,46.9c8.7,16.8,20,32.9,34.2,48.1c14.1,15.2,29.5,27.4,46.2,36.8c8.6,4.7,17.6,8.6,27.2,11.8
			c9.6,3.2,20.6,6.1,33.1,8.8c10.2,1.9,19.4,3.2,27.6,3.9c8.2,0.7,18.6,0.9,31.1,0.9h612.8v-127.2h-677.1V817.4h527.9v95h-328.8
			v127.2L5432.5,1039.6"/>
		<path id="path16" d="M3902.7,434.4l19.2-7.8c178.4-64.7,376.6-121,585.3-121c616.7,0,1147.5,299.2,1250.8,734.7h23.8
			c-103.8-453.8-650.9-757.8-1274.5-757.8c-90.5,0-179,10.4-264.5,27.4c116.2-29.7,239.8-47.7,367.8-47.7
			c654.8,0,1210,323.9,1303.2,778.2h27.2c-93.7-475.8-668.2-804.8-1330.4-804.8c-79.4,0-157.2,6.8-232.5,19
			c106.8-22.9,219.5-35.8,335.8-35.8c693,0,1272.5,348.6,1355.6,821.7h30.6c-83.5-497.8-685.5-851.9-1386.2-851.9
			c-65.1,0-129.1,4-191.6,11.5c94.7-16,193.4-24.8,294.8-24.8c731.1,0,1335,373.3,1408,865.2h34.1
			c-73.3-519.8-702.8-898.9-1442-898.9c-47.8,0-95,1.9-141.5,5.6c79.4-10,161.2-15.3,244.7-15.3c769.3,0,1397.5,398,1460.3,908.7
			h37.5C6354.8,498.5,5697.8,94.3,4920,94.3c-27.3,0-54.4,0.6-81.3,1.6c60.4-5.2,122-7.9,184.6-7.9c807.4,0,1460,422.7,1512.7,952.2
			h41c-52.9-563.7-737.4-992.9-1553.7-992.9l-10.7,0c37.6-1.8,75.6-2.7,113.9-2.7c845.6,0,1522.5,447.4,1565.1,995.6h44.4
			c-42.7-585.7-754.7-1040-1609.6-1040c-488.8,0-927.8,147.7-1223.8,382.2V434.4"/>
		<path id="path18" d="M3902.7,434.4l19.2-7.8c178.4-64.7,376.6-121,585.3-121c616.7,0,1147.5,299.2,1250.8,734.7h23.8
			c-103.8-453.8-650.9-757.8-1274.5-757.8c-90.5,0-179,10.4-264.5,27.4c116.2-29.7,239.8-47.7,367.8-47.7
			c654.8,0,1210,323.9,1303.2,778.2h27.2c-93.7-475.8-668.2-804.8-1330.4-804.8c-79.4,0-157.2,6.8-232.5,19
			c106.8-22.9,219.5-35.8,335.8-35.8c693,0,1272.5,348.6,1355.6,821.7h30.6c-83.5-497.8-685.5-851.9-1386.2-851.9
			c-65.1,0-129.1,4-191.6,11.5c94.7-16,193.4-24.8,294.8-24.8c731.1,0,1335,373.3,1408,865.2h34.1
			c-73.3-519.8-702.8-898.9-1442-898.9c-47.8,0-95,1.9-141.5,5.6c79.4-10,161.2-15.3,244.7-15.3c769.3,0,1397.5,398,1460.3,908.7
			h37.5C6354.8,498.5,5697.8,94.3,4920,94.3c-27.3,0-54.4,0.6-81.3,1.6c60.4-5.2,122-7.9,184.6-7.9c807.4,0,1460,422.7,1512.7,952.2
			h41c-52.9-563.7-737.4-992.9-1553.7-992.9l-10.7,0c37.6-1.8,75.6-2.7,113.9-2.7c845.6,0,1522.5,447.4,1565.1,995.6h44.4
			c-42.7-585.7-754.7-1040-1609.6-1040c-488.8,0-927.8,147.7-1223.8,382.2V434.4"/>
		<path id="path20" d="M173.7,206.1v137.7H98.6v-15.3h52.7V214.7c-6.7-3.5-18.5-7.9-40.9-7.9c-47.2,0-86.6,43.7-86.6,122.4
			c0,85.4,33.4,125.1,86.6,125.1c24.4,0,41.3-6.3,50.4-11.4l6.7,13.8c-11,7.5-30.7,13.4-59,13.4c-53.9,0-108.2-42.5-108.2-137.3
			c0-99.5,56.3-141.2,109-141.2C141.4,191.5,158,196.6,173.7,206.1"/>
		<path id="path22" class="st0" d="M381.8,312.3c0,70.4-30.3,99.1-75.9,99.1c-44.5,0-80.3-34.6-80.3-109.4
			c0-79.5,39.7-110.6,90.9-110.6c25.2,0,46.4,6.7,57.8,13.8l-6.7,15.3c-10.6-6.3-27.1-12.6-50.8-12.6c-42.1,0-68.1,27.9-71.2,84.2
			L381.8,312.3z M360.9,322.9l-115.7-17.7c0,64.5,26.4,90.5,60.2,90.5C339.7,395.7,360.9,376,360.9,322.9"/>
		<path id="path24" class="st0" d="M580.5,304c0,64.9-32.7,105.8-80.7,105.8c-22.4,0-34.6-4.7-45.2-10.6v105h-20.9V206.1
			c11.4-7.9,31.9-14.6,56.7-14.6C549.8,191.5,580.5,238.7,580.5,304z M559.3,304c0-56.3-19.3-97.6-69.6-97.6
			c-12.6,0-25.6,1.6-35,6.3v174.7c11.4,6.3,22,9.4,40.9,9.4C539.2,396.9,559.3,353.2,559.3,304"/>
		<path id="path26" class="st0" d="M768.5,208v199.5h-21.2V217.1c-11.4-6.7-25.2-10.2-44.1-10.2c-33.8,0-49.6,21.6-49.6,51.5v149.1
			h-21.2V257.6c0-38.2,18.5-66.5,68.5-66.5C732.3,191.1,754.8,199.8,768.5,208z M684.3,454.3c0,7.1-5.9,13.4-13.4,13.4
			c-7.5,0-13.4-6.3-13.4-13.4c0-7.5,5.9-13.4,13.4-13.4C678.4,440.9,684.3,446.8,684.3,454.3z M743,454.3c0,7.1-5.9,13.4-13,13.4
			c-7.5,0-13.4-6.3-13.4-13.4c0-7.5,5.9-13.4,13.4-13.4C737.1,440.9,743,446.8,743,454.3"/>
		<path id="path28" d="M969.6,195.4v155.4c0,26-14.2,60.6-68.9,60.6c-31.9,0-53.9-5.5-71.6-15V195.4h21.2v192.8
			c13,5.5,23.6,8.6,47.2,8.6c42.1,0,50.8-25.2,50.8-47.2V195.4H969.6"/>
		<path id="path30" class="st0" d="M1168.3,206.1v298.2h-20.8V404c-12.6,3.5-23.2,5.1-34.2,5.1c-55.1,0-91.7-40.5-91.7-112.1
			c0-60.2,28.7-105.4,87.8-105.4C1135.2,191.5,1156.9,198.2,1168.3,206.1z M1147.4,213.5c-7.9-5.5-19.3-7.1-36.2-7.1
			c-49.6,0-68.5,41.3-68.5,93.2c0,47.6,16.9,96.4,73.6,96.4c10.6,0,21.2-1.6,31.1-4.3V213.5"/>
		<path id="path32" class="st0" d="M1376.4,312.3c0,70.4-30.3,99.1-75.9,99.1c-44.5,0-80.3-34.6-80.3-109.4
			c0-79.5,39.7-110.6,90.9-110.6c25.2,0,46.4,6.7,57.8,13.8l-6.7,15.3c-10.6-6.3-27.2-12.6-50.8-12.6c-42.1,0-68.1,27.9-71.2,84.2
			L1376.4,312.3z M1355.5,322.9l-115.7-17.7c0,64.5,26.4,90.5,60.2,90.5C1334.3,395.7,1355.5,376,1355.5,322.9"/>
		<path id="path34" d="M1452.7,195.4v308.9h-21.3V195.4H1452.7"/>
		<path id="path36" d="M1588.5,196.2V210c-2.8-0.8-6.3-0.8-8.7-0.8c-22.4,0-30.7,16.1-30.7,33.4v152.7h39.3v12.2h-39.3v58.6
			l-21.3-7.9v-50.8h-24.8v-12.6h24.8V243.8c0-22.8,11.4-49.6,47.2-49.6C1580.7,194.2,1585,195,1588.5,196.2"/>
		<path id="path38" class="st0" d="M1777.8,312.3c0,70.4-30.3,99.1-75.9,99.1c-44.5,0-80.3-34.6-80.3-109.4
			c0-79.5,39.7-110.6,90.9-110.6c25.2,0,46.4,6.7,57.8,13.8l-6.7,15.3c-10.6-6.3-27.2-12.6-50.8-12.6c-42.1,0-68.1,27.9-71.2,84.2
			L1777.8,312.3z M1756.9,322.9l-115.7-17.7c0,64.5,26.4,90.5,60.2,90.5C1735.7,395.7,1756.9,376,1756.9,322.9"/>
		<path id="path40" d="M2091,195.4l-104.7,144L2087,466.1h-24L1966.3,339h-0.8v127.1h-21.6V195.4h21.6v142.8h0.8l98.8-142.8H2091"/>
		<path id="path42" class="st0" d="M2270.4,301.3c0,63-21.6,110.2-77.9,110.2c-55.1,0-77.1-47.2-77.1-110.2
			c0-61.8,22-109.8,77.9-109.8C2248.3,191.5,2270.4,239.5,2270.4,301.3z M2249.1,300.9c0-44.9-8.6-94-55.9-94
			c-46.4,0-56.7,48.8-56.7,94c0,44.9,9.1,96.8,56.7,96.8C2240.5,397.7,2249.1,345.7,2249.1,300.9"/>
		<path id="path44" d="M2582.4,195.4v155.4c0,25.6-14.6,60.6-65.3,60.6c-26.8,0-48-10.6-63.7-27.5c-13,17.3-31.9,27.5-63.7,27.5
			c-32.3,0-50-5.5-67.3-15V195.4h21.2v192.8c13.4,6.3,24.4,8.6,44.5,8.6c35.8,0,53.9-18.1,53.9-44.9V195.4h21.3v177.8
			c14.2,15.7,30.7,23.2,51.5,23.2c35.4,0,46.4-22.8,46.4-46.4V195.4H2582.4"/>
		<path id="path46" class="st0" d="M2789.7,306c0,61.4-30.3,105.4-88.1,105.4c-26.4,0-46.4-6.7-58.6-14.6v-286h20.9v86.9
			c8.6-3.1,22-5.5,33.8-5.5C2753.9,192.3,2789.7,234,2789.7,306L2789.7,306z M2768.5,303.6c0-60.6-25.6-97.6-74.4-97.6
			c-12.2,0-22.8,2.4-30.3,5.1v179.4c9.4,5.1,20.5,7.5,36.2,7.5C2750.4,398.1,2768.5,360.7,2768.5,303.6"/>
		<path id="path48" class="st0" d="M2989.2,312.3c0,70.4-30.3,99.1-75.9,99.1c-44.5,0-80.3-34.6-80.3-109.4
			c0-79.5,39.8-110.6,90.9-110.6c25.2,0,46.4,6.7,57.8,13.8l-6.7,15.3c-10.6-6.3-27.1-12.6-50.8-12.6c-42.1,0-68.1,27.9-71.2,84.2
			L2989.2,312.3z M2968.3,322.9l-115.7-17.7c0,64.5,26.4,90.5,60.2,90.5C2947.1,395.7,2968.3,376,2968.3,322.9"/>
		<path id="path50" d="M3111.1,196.2V210c-2.8-0.8-6.3-0.8-8.6-0.8c-22.4,0-30.7,16.1-30.7,33.4v152.7h39.3v12.2h-39.3v58.6
			l-21.3-7.9v-50.8h-24.8v-12.6h24.8V243.8c0-22.8,11.4-49.6,47.2-49.6C3103.3,194.2,3107.6,195,3111.1,196.2"/>
		<path id="path52" class="st0" d="M3300.4,312.3c0,70.4-30.3,99.1-75.9,99.1c-44.5,0-80.3-34.6-80.3-109.4
			c0-79.5,39.7-110.6,90.9-110.6c25.2,0,46.4,6.7,57.8,13.8l-6.7,15.3c-10.6-6.3-27.1-12.6-50.8-12.6c-42.1,0-68.1,27.9-71.2,84.2
			L3300.4,312.3z M3279.6,322.9l-115.7-17.7c0,64.5,26.4,90.5,60.2,90.5C3258.3,395.7,3279.6,376,3279.6,322.9"/>
		<path id="path54" d="M3492.8,195.4v155.4c0,26-14.2,60.6-68.9,60.6c-31.9,0-53.9-5.5-71.6-15V195.4h21.3v192.8
			c13,5.5,23.6,8.6,47.2,8.6c42.1,0,50.8-25.2,50.8-47.2V195.4H3492.8"/>
		<path id="path56" d="M3665.9,195.4V208h-100.7l96.8,199.5h-119.6v-12.6h91.3l-97.6-199.5H3665.9"/>
		<path id="path58" d="M3759.1,211.2c0,9.1-7.5,16.5-16.5,16.5c-9.1,0-16.5-7.5-16.5-16.5c0-9,7.5-16.5,16.5-16.5
			C3751.7,194.6,3759.1,202.1,3759.1,211.2"/>
	</g>
</g>
</svg>
