<?xml version="1.0" encoding="utf-8"?>
<!-- Generator: Adobe Illustrator 23.0.3, SVG Export Plug-In . SVG Version: 6.00 Build 0)  -->
<svg version="1.1" id="Ebene_1" xmlns="http://www.w3.org/2000/svg" xmlns:xlink="http://www.w3.org/1999/xlink" x="0px" y="0px"
	 viewBox="0 0 28.7 47.8" style="enable-background:new 0 0 28.7 47.8;" xml:space="preserve">
<style type="text/css">
	.st0{clip-path:url(#SVGID_2_);fill:#00559B;}
</style>
<g>
	<defs>
		<rect id="SVGID_1_" x="0.2" y="0.2" width="28.3" height="47.6"/>
	</defs>
	<clipPath id="SVGID_2_">
		<use xlink:href="#SVGID_1_"  style="display:none;overflow:visible;"/>
	</clipPath>
	<path class="st0" d="M14.4,0.2C6.5,0.2,0.2,6.5,0.2,14.4c0,7.8,14.2,28.9,14.2,33.4c0-4.8,14.2-25.6,14.2-33.4
		C28.5,6.5,22.2,0.2,14.4,0.2z M14.4,25.8c-3.1,0-5.8-1.1-8.1-3.3c-2.2-2.2-3.4-4.9-3.4-8.1c0-3.1,1.1-5.8,3.3-8.1
		c2.2-2.2,4.9-3.4,8.1-3.4c3.1,0,5.8,1.1,8.1,3.3c2.2,2.2,3.4,4.9,3.4,8.1c0,3.1-1.1,5.8-3.3,8.1C20.2,24.7,17.5,25.8,14.4,25.8z"/>
</g>
</svg>
