<?xml version="1.0" standalone="no"?>
<!DOCTYPE svg PUBLIC "-//W3C//DTD SVG 20010904//EN"
 "http://www.w3.org/TR/2001/REC-SVG-20010904/DTD/svg10.dtd">
<svg version="1.0" xmlns="http://www.w3.org/2000/svg"
 width="700.000000pt" height="700.000000pt" viewBox="0 0 700.000000 700.000000"
 preserveAspectRatio="xMidYMid meet">
<metadata>
Created by potrace 1.14, written by Peter Selinger 2001-2017
</metadata>
<g transform="translate(0.000000,700.000000) scale(0.100000,-0.100000)"
fill="#000000" stroke="none">
<path d="M0 3500 l0 -3500 3500 0 3500 0 0 3500 0 3500 -3500 0 -3500 0 0
-3500z m3730 3114 c285 -37 586 -139 805 -274 195 -120 406 -316 537 -500 66
-93 202 -343 196 -361 -2 -5 -234 -137 -517 -293 l-513 -284 -77 77 c-104 105
-196 171 -326 236 -280 139 -602 160 -868 57 -140 -54 -237 -136 -284 -239
-21 -46 -25 -66 -21 -126 5 -101 41 -171 137 -267 159 -158 390 -276 796 -405
206 -66 353 -122 545 -208 874 -393 1377 -915 1486 -1542 22 -123 14 -394 -14
-516 -63 -266 -198 -532 -388 -760 -88 -105 -261 -270 -376 -356 -301 -228
-641 -379 -1008 -449 -182 -35 -451 -43 -627 -20 -734 97 -1307 583 -1664
1411 -55 127 -175 480 -181 529 l-3 29 615 172 c338 94 624 175 636 179 19 6
24 -1 44 -56 65 -180 180 -366 312 -504 139 -145 265 -230 439 -297 80 -30 90
-32 224 -31 127 0 147 2 220 28 98 34 159 71 220 137 62 66 75 101 75 201 -1
219 -159 434 -447 609 -131 80 -238 124 -388 163 -515 134 -1004 371 -1320
641 -313 267 -405 385 -494 638 -73 208 -101 377 -101 621 0 389 96 717 301
1026 86 130 290 334 424 422 296 197 644 302 1095 332 100 7 393 -5 510 -20z"/>
</g>
</svg>
